<?xml version="1.0" encoding="UTF-8"?>
<svg xmlns="http://www.w3.org/2000/svg" xmlns:xlink="http://www.w3.org/1999/xlink" width="120px" height="94px" viewBox="0 0 163 129" version="1.1">
<g id="surface1">
<path style=" stroke:none;fill-rule:nonzero;fill:rgb(0%,0%,0%);fill-opacity:1;" d="M 27.613281 16.5 C 27.613281 17.925781 28.136719 18 42.914062 18 C 57.691406 18 58.214844 17.925781 58.214844 16.5 C 58.214844 15.074219 57.691406 15 42.914062 15 C 28.136719 15 27.613281 15.074219 27.613281 16.5 Z M 27.613281 16.5 "/>
<path style=" stroke:none;fill-rule:nonzero;fill:rgb(0%,0%,0%);fill-opacity:1;" d="M 62.019531 15.300781 C 62.765625 16.050781 95.15625 33 95.828125 33 C 96.054688 33 96.277344 28.949219 96.277344 24 L 96.277344 15 L 78.960938 15 C 69.484375 15 61.871094 15.148438 62.019531 15.300781 Z M 62.019531 15.300781 "/>
<path style=" stroke:none;fill-rule:nonzero;fill:rgb(0%,0%,0%);fill-opacity:1;" d="M 119.414062 21.976562 C 112.621094 25.726562 104.859375 30 102.097656 31.351562 L 97.023438 33.824219 L 97.023438 43.574219 C 97.023438 48.976562 97.246094 53.25 97.621094 53.101562 C 97.917969 52.949219 101.578125 51.074219 105.832031 48.898438 C 110.085938 46.800781 113.816406 45 114.191406 45 C 114.636719 45 115.011719 54.824219 115.085938 69.148438 L 115.308594 93.375 L 132.847656 93.375 L 133.070312 54.148438 C 133.148438 28.273438 132.996094 15 132.476562 15 C 132.027344 15 126.207031 18.148438 119.414062 21.976562 Z M 119.414062 21.976562 "/>
<path style=" stroke:none;fill-rule:nonzero;fill:rgb(0%,0%,0%);fill-opacity:1;" d="M 27.613281 23.324219 C 27.613281 24.675781 28.285156 24.75 42.988281 24.75 C 57.167969 24.75 58.289062 24.675781 58.066406 23.398438 C 57.839844 22.273438 56.421875 22.125 42.691406 21.976562 C 28.210938 21.824219 27.613281 21.898438 27.613281 23.324219 Z M 27.613281 23.324219 "/>
<path style=" stroke:none;fill-rule:nonzero;fill:rgb(0%,0%,0%);fill-opacity:1;" d="M 27.613281 30.375 C 27.613281 31.351562 29.777344 31.5 42.914062 31.5 C 56.050781 31.5 58.214844 31.351562 58.214844 30.375 C 58.214844 29.398438 56.050781 29.25 42.914062 29.25 C 29.777344 29.25 27.613281 29.398438 27.613281 30.375 Z M 27.613281 30.375 "/>
<path style=" stroke:none;fill-rule:nonzero;fill:rgb(0%,0%,0%);fill-opacity:1;" d="M 27.613281 37.5 C 27.613281 38.925781 28.136719 39 42.914062 39 C 57.691406 39 58.214844 38.925781 58.214844 37.5 C 58.214844 36.074219 57.691406 36 42.914062 36 C 28.136719 36 27.613281 36.074219 27.613281 37.5 Z M 27.613281 37.5 "/>
<path style=" stroke:none;fill-rule:nonzero;fill:rgb(0%,0%,0%);fill-opacity:1;" d="M 27.613281 44.25 C 27.613281 45.675781 28.136719 45.75 42.914062 45.75 C 57.691406 45.75 58.214844 45.675781 58.214844 44.25 C 58.214844 42.824219 57.691406 42.75 42.914062 42.75 C 28.136719 42.75 27.613281 42.824219 27.613281 44.25 Z M 27.613281 44.25 "/>
<path style=" stroke:none;fill-rule:nonzero;fill:rgb(0%,0%,0%);fill-opacity:1;" d="M 77.617188 69.375 L 77.617188 93.824219 L 86.800781 93.601562 L 95.90625 93.375 L 96.128906 73.800781 L 96.277344 54.300781 L 92.398438 52.5 C 90.230469 51.449219 87.246094 49.949219 85.828125 49.125 C 84.410156 48.300781 81.949219 47.023438 80.457031 46.273438 L 77.617188 45 Z M 77.617188 69.375 "/>
<path style=" stroke:none;fill-rule:nonzero;fill:rgb(0%,0%,0%);fill-opacity:1;" d="M 27.613281 51 C 27.613281 52.425781 28.136719 52.5 42.914062 52.5 C 57.691406 52.5 58.214844 52.425781 58.214844 51 C 58.214844 49.574219 57.691406 49.5 42.914062 49.5 C 28.136719 49.5 27.613281 49.574219 27.613281 51 Z M 27.613281 51 "/>
<path style=" stroke:none;fill-rule:nonzero;fill:rgb(0%,0%,0%);fill-opacity:1;" d="M 27.613281 57.75 C 27.613281 59.175781 28.136719 59.25 42.914062 59.25 C 57.691406 59.25 58.214844 59.175781 58.214844 57.75 C 58.214844 56.324219 57.691406 56.25 42.914062 56.25 C 28.136719 56.25 27.613281 56.324219 27.613281 57.75 Z M 27.613281 57.75 "/>
<path style=" stroke:none;fill-rule:nonzero;fill:rgb(0%,0%,0%);fill-opacity:1;" d="M 41.273438 63.523438 C 29.851562 63.75 27.613281 63.976562 27.613281 64.875 C 27.613281 65.851562 29.929688 66 42.988281 66 C 57.167969 66 58.289062 65.925781 58.066406 64.648438 C 57.765625 63.148438 58.886719 63.226562 41.273438 63.523438 Z M 41.273438 63.523438 "/>
<path style=" stroke:none;fill-rule:nonzero;fill:rgb(0%,0%,0%);fill-opacity:1;" d="M 27.765625 71.023438 C 27.988281 72.226562 29.332031 72.375 42.914062 72.375 C 56.496094 72.375 57.839844 72.226562 58.066406 71.023438 C 58.289062 69.824219 57.167969 69.75 42.914062 69.75 C 28.660156 69.75 27.539062 69.824219 27.765625 71.023438 Z M 27.765625 71.023438 "/>
<path style=" stroke:none;fill-rule:nonzero;fill:rgb(0%,0%,0%);fill-opacity:1;" d="M 27.613281 77.925781 C 27.613281 79.351562 28.359375 79.425781 42.914062 79.5 C 57.839844 79.574219 58.214844 79.5 58.214844 78 C 58.214844 76.574219 57.765625 76.5 42.914062 76.5 C 28.285156 76.5 27.613281 76.574219 27.613281 77.925781 Z M 27.613281 77.925781 "/>
<path style=" stroke:none;fill-rule:nonzero;fill:rgb(0%,0%,0%);fill-opacity:1;" d="M 27.613281 84.75 C 27.613281 86.175781 28.136719 86.25 42.914062 86.25 C 57.691406 86.25 58.214844 86.175781 58.214844 84.75 C 58.214844 83.324219 57.691406 83.25 42.914062 83.25 C 28.136719 83.25 27.613281 83.324219 27.613281 84.75 Z M 27.613281 84.75 "/>
<path style=" stroke:none;fill-rule:nonzero;fill:rgb(0%,0%,0%);fill-opacity:1;" d="M 27.613281 92.023438 L 27.613281 93.75 L 42.765625 93.601562 C 56.421875 93.375 57.839844 93.226562 57.839844 92.101562 C 57.839844 90.898438 56.421875 90.75 42.765625 90.523438 L 27.613281 90.226562 Z M 27.613281 92.023438 "/>
<path style=" stroke:none;fill-rule:nonzero;fill:rgb(0%,0%,0%);fill-opacity:1;" d="M 139.863281 104.925781 C 136.65625 106.875 135.3125 110.851562 136.503906 114.824219 C 137.773438 118.949219 139.640625 120 146.058594 120 L 151.507812 120 L 151.507812 111.75 L 148.519531 111.75 C 146.355469 111.75 145.535156 112.050781 145.535156 112.875 C 145.535156 113.476562 146.207031 114 147.101562 114 C 148.296875 114 148.59375 114.375 148.371094 116.023438 C 148.148438 117.824219 147.773438 118.125 145.386719 118.351562 C 143.371094 118.5 142.328125 118.199219 141.132812 116.925781 C 139.042969 114.601562 138.96875 109.351562 141.058594 107.25 C 142.921875 105.375 146.507812 105.300781 148.296875 107.101562 C 149.640625 108.449219 151.507812 108.898438 151.507812 107.773438 C 151.507812 107.476562 151.507812 106.875 151.507812 106.425781 C 151.507812 105.375 146.804688 103.5 144.265625 103.5 C 143.148438 103.5 141.132812 104.175781 139.863281 104.925781 Z M 139.863281 104.925781 "/>
<path style=" stroke:none;fill-rule:nonzero;fill:rgb(0%,0%,0%);fill-opacity:1;" d="M 9.03125 112.050781 C 8.957031 119.550781 9.03125 120 10.449219 120 C 11.792969 120 11.941406 119.550781 11.941406 113.625 C 11.941406 110.101562 12.238281 107.25 12.613281 107.25 C 12.984375 107.25 14.179688 110.101562 15.375 113.625 C 17.164062 119.023438 17.761719 120 18.957031 119.851562 C 20.078125 119.699219 20.898438 118.125 22.390625 113.699219 C 23.433594 110.398438 24.628906 107.625 25.078125 107.476562 C 25.449219 107.324219 25.675781 109.875 25.523438 113.625 C 25.300781 119.625 25.375 120 26.792969 120 C 28.285156 120 28.359375 119.625 28.359375 112.050781 L 28.359375 104.175781 L 25.675781 104.398438 C 22.988281 104.625 22.914062 104.773438 21.195312 109.726562 C 19.332031 115.425781 18.882812 116.25 18.359375 114.675781 C 15 104.25 15.300781 104.625 12.089844 104.398438 L 9.105469 104.175781 Z M 9.03125 112.050781 "/>
<path style=" stroke:none;fill-rule:nonzero;fill:rgb(0%,0%,0%);fill-opacity:1;" d="M 32.09375 112.125 L 32.09375 120 L 35.824219 120 L 35.824219 104.25 L 32.09375 104.25 Z M 32.09375 112.125 "/>
<path style=" stroke:none;fill-rule:nonzero;fill:rgb(0%,0%,0%);fill-opacity:1;" d="M 38.882812 108.898438 C 38.734375 115.273438 39.480469 120 40.75 120 C 41.570312 120 41.792969 118.574219 41.792969 113.625 C 41.792969 109.875 42.09375 107.25 42.542969 107.25 C 42.988281 107.25 44.707031 110.101562 46.421875 113.625 C 49.558594 119.925781 49.632812 120 52.394531 120 L 55.230469 120 L 55.230469 104.25 L 53.363281 104.25 C 51.496094 104.25 51.496094 104.324219 51.496094 110.25 C 51.496094 113.550781 51.273438 116.25 50.976562 116.25 C 50.601562 116.25 49.035156 113.550781 47.390625 110.25 C 44.480469 104.398438 44.332031 104.25 41.71875 104.25 L 39.035156 104.25 Z M 38.882812 108.898438 "/>
<path style=" stroke:none;fill-rule:nonzero;fill:rgb(0%,0%,0%);fill-opacity:1;" d="M 58.960938 112.125 C 58.960938 119.398438 59.035156 120 60.378906 120 C 61.648438 120 61.871094 119.398438 62.09375 116.398438 L 62.320312 112.875 L 65.902344 112.648438 L 69.410156 112.425781 L 69.410156 116.175781 C 69.410156 119.476562 69.632812 120 70.902344 120 C 72.320312 120 72.394531 119.476562 72.394531 112.125 C 72.394531 104.773438 72.320312 104.25 70.902344 104.25 C 69.632812 104.25 69.410156 104.773438 69.410156 107.25 C 69.410156 108.898438 69.109375 110.25 68.664062 110.324219 C 68.289062 110.398438 67.09375 110.398438 66.050781 110.398438 C 62.019531 110.398438 61.945312 110.324219 61.945312 107.25 C 61.945312 104.773438 61.722656 104.25 60.453125 104.25 C 59.035156 104.25 58.960938 104.773438 58.960938 112.125 Z M 58.960938 112.125 "/>
<path style=" stroke:none;fill-rule:nonzero;fill:rgb(0%,0%,0%);fill-opacity:1;" d="M 83.441406 104.773438 C 83.292969 105.148438 83.292969 108.675781 83.441406 112.648438 L 83.738281 120 L 88.367188 120 C 93.664062 120 96.277344 118.648438 96.277344 115.875 C 96.277344 114.898438 95.53125 113.550781 94.636719 112.875 C 93.066406 111.75 92.992188 111.601562 94.261719 110.925781 C 96.054688 109.875 95.980469 106.050781 94.113281 105 C 92.472656 104.101562 83.8125 103.949219 83.441406 104.773438 Z M 91.128906 106.5 C 93.21875 107.625 92.917969 110.101562 90.679688 110.699219 C 88.066406 111.375 86.574219 110.550781 86.574219 108.523438 C 86.574219 105.675781 88.21875 104.925781 91.128906 106.5 Z M 92.769531 114 C 93.144531 114.300781 93.21875 115.273438 92.917969 116.175781 C 92.546875 117.449219 91.800781 117.75 89.484375 117.75 C 86.800781 117.75 86.574219 117.601562 86.574219 115.648438 C 86.574219 114.449219 86.800781 113.25 87.097656 112.949219 C 87.695312 112.351562 91.875 113.101562 92.769531 114 Z M 92.769531 114 "/>
<path style=" stroke:none;fill-rule:nonzero;fill:rgb(0%,0%,0%);fill-opacity:1;" d="M 103.964844 105.523438 C 103.742188 106.273438 102.84375 108.523438 102.023438 110.625 C 98.515625 119.699219 98.441406 120 99.933594 120 C 100.679688 120 101.578125 119.25 102.023438 118.351562 C 102.621094 116.925781 103.441406 116.625 106.652344 116.550781 C 110.160156 116.398438 110.605469 116.625 111.203125 118.199219 C 111.949219 120.074219 115.382812 120.898438 114.785156 119.101562 C 114.5625 118.574219 113.292969 114.976562 111.875 111.226562 C 109.414062 104.398438 109.265625 104.25 106.875 104.25 C 105.234375 104.25 104.261719 104.699219 103.964844 105.523438 Z M 108.890625 110.925781 C 109.339844 112.273438 109.5625 113.625 109.339844 113.925781 C 108.964844 114.601562 103.589844 114 103.964844 113.324219 C 104.039062 113.101562 104.785156 111.601562 105.53125 109.949219 C 106.949219 106.800781 107.546875 107.023438 108.890625 110.925781 Z M 108.890625 110.925781 "/>
<path style=" stroke:none;fill-rule:nonzero;fill:rgb(0%,0%,0%);fill-opacity:1;" d="M 117.921875 112.199219 C 117.921875 119.324219 118.070312 120.074219 119.265625 119.851562 C 120.308594 119.625 120.535156 118.726562 120.535156 113.476562 C 120.535156 110.101562 120.757812 107.175781 120.980469 106.949219 C 121.207031 106.726562 122.847656 109.574219 124.636719 113.25 C 127.773438 119.625 128.070312 120 130.308594 120 C 133.070312 120 133.371094 119.398438 133.148438 114.375 C 133.070312 112.273438 132.921875 109.199219 132.921875 107.398438 C 132.847656 105.226562 132.550781 104.25 131.804688 104.25 C 130.460938 104.25 130.160156 105.75 130.234375 111.523438 C 130.308594 114.375 130.011719 116.25 129.488281 116.175781 C 129.117188 116.175781 127.472656 113.476562 125.832031 110.175781 C 123.070312 104.550781 122.847656 104.25 120.457031 104.25 L 117.921875 104.25 Z M 117.921875 112.199219 "/>
<path style=" stroke:none;fill-rule:nonzero;fill:rgb(0%,0%,0%);fill-opacity:1;" d="M 82.320312 128.773438 C 85.082031 128.925781 89.484375 128.925781 92.023438 128.773438 C 94.5625 128.625 92.320312 128.550781 86.949219 128.550781 C 81.648438 128.550781 79.558594 128.625 82.320312 128.773438 Z M 82.320312 128.773438 "/>
<path style=" stroke:none;fill-rule:nonzero;fill:rgb(0%,0%,0%);fill-opacity:1;" d="M 119.636719 128.773438 C 122.398438 128.925781 126.800781 128.925781 129.339844 128.773438 C 131.878906 128.625 129.640625 128.550781 124.265625 128.550781 C 118.964844 128.550781 116.875 128.625 119.636719 128.773438 Z M 119.636719 128.773438 "/>
</g>
</svg>
