<?xml version="1.0" standalone="no"?>
<!DOCTYPE svg PUBLIC "-//W3C//DTD SVG 20010904//EN"
 "http://www.w3.org/TR/2001/REC-SVG-20010904/DTD/svg10.dtd">
<svg version="1.0" xmlns="http://www.w3.org/2000/svg"
 width="512.000000pt" height="512.000000pt" viewBox="0 0 512.000000 512.000000"
 preserveAspectRatio="xMidYMid meet">

<g transform="translate(0.000000,512.000000) scale(0.100000,-0.100000)"
fill="#000000" stroke="none">
<path d="M1323 5105 c-156 -42 -284 -163 -335 -318 -6 -18 -14 -106 -17 -197
l-6 -165 -80 -6 c-168 -12 -205 -67 -205 -297 0 -292 104 -676 256 -948 l34
-61 0 -493 0 -493 99 -94 98 -93 -85 -83 c-48 -45 -92 -89 -99 -97 -9 -11 -12
-69 -13 -212 l0 -198 -370 0 -371 0 -24 -25 -25 -24 0 -455 c0 -418 2 -459 19
-515 48 -155 175 -274 338 -316 86 -23 3170 -23 3256 0 168 44 299 173 343
340 11 40 14 265 14 1155 l0 1105 -99 94 -100 95 100 95 99 96 0 166 c0 160
-1 166 -23 187 -31 29 -72 28 -102 -3 -24 -23 -25 -29 -25 -156 l0 -132 -109
-103 c-61 -58 -112 -115 -115 -129 -10 -41 19 -83 125 -180 l98 -90 -2 -1080
-2 -1080 -26 -55 c-33 -70 -89 -126 -159 -159 -74 -35 -181 -36 -256 -3 -63
29 -136 101 -166 167 -23 49 -23 57 -28 508 l-5 459 -24 19 c-22 18 -45 19
-452 19 l-428 0 -96 -98 -95 -97 -92 98 -93 97 -243 0 c-152 0 -251 -4 -263
-11 -48 -25 -44 -105 7 -128 16 -7 99 -11 229 -11 l203 0 99 -104 c100 -107
136 -131 179 -120 13 3 70 55 125 115 l102 109 348 0 348 0 3 -417 c3 -407 4
-419 26 -474 12 -31 38 -78 57 -105 l35 -49 -272 -3 c-150 -1 -772 -1 -1383 0
l-1110 3 -50 25 c-73 35 -138 105 -164 173 -20 55 -21 73 -21 452 l0 395 474
0 c464 0 474 0 500 21 33 26 36 79 6 109 -17 17 -33 20 -105 20 l-85 0 0 169
0 169 101 93 c55 51 107 106 116 122 24 47 4 81 -112 190 l-105 99 0 349 0
350 32 -38 c68 -81 167 -177 250 -245 75 -59 86 -72 78 -88 -16 -29 -12 -66 9
-91 18 -22 29 -24 133 -30 110 -6 116 -7 240 -62 220 -98 445 -157 681 -178
l125 -12 198 -198 199 -199 -626 0 c-594 0 -628 -1 -650 -18 -33 -27 -30 -78
5 -109 l27 -23 612 0 c337 0 743 -3 903 -7 l292 -6 26 26 c17 17 26 37 26 59
0 29 -33 65 -347 380 l-347 347 313 3 313 3 19 24 c25 30 24 76 -1 101 -19 19
-33 20 -353 20 l-333 0 -13 98 c-6 53 -15 109 -18 124 l-5 27 352 3 352 3 19
24 c25 30 24 76 -1 101 -19 19 -33 20 -389 20 l-369 0 -41 120 c-22 66 -41
122 -41 125 0 2 185 6 411 7 l411 3 19 24 c25 30 24 76 -1 101 -19 19 -33 20
-469 20 l-449 0 -11 28 c-6 15 -38 70 -70 122 l-59 95 520 5 520 5 19 24 c25
30 24 76 -1 101 -20 20 -33 20 -596 20 l-577 0 -108 104 c-59 58 -120 113
-135 123 -27 17 -8 18 685 23 l713 5 19 24 c25 30 24 76 -1 101 -20 20 -33 20
-845 20 l-825 0 -80 40 c-186 93 -423 172 -615 204 -55 10 -110 19 -122 22
-23 4 -23 7 -23 149 0 123 3 153 21 202 26 68 91 138 164 173 l50 25 1383 3
c769 1 1382 -1 1382 -6 0 -5 -9 -17 -19 -26 -30 -27 -78 -135 -90 -200 -7 -38
-11 -250 -11 -578 0 -436 2 -524 15 -547 23 -46 66 -54 109 -20 24 19 26 26
26 100 l0 79 370 0 371 0 24 25 c24 23 25 28 25 177 l0 153 -95 90 c-52 50
-95 93 -95 97 0 3 43 47 95 99 l95 93 0 112 c0 82 -5 129 -19 173 -48 155
-175 274 -338 316 -84 22 -3179 21 -3260 0z m3284 -167 c116 -54 183 -165 183
-302 l0 -73 -109 -101 c-117 -109 -131 -134 -104 -187 8 -16 59 -70 113 -120
l99 -90 1 -72 0 -73 -321 0 -320 0 3 398 c4 447 5 451 79 536 73 83 159 119
266 111 34 -2 83 -14 110 -27z m-2529 -1047 l62 -45 0 -163 c0 -161 0 -164 25
-188 29 -30 64 -32 96 -6 22 17 25 29 29 117 l5 99 68 -85 67 -84 0 -202 c0
-111 3 -210 6 -219 10 -24 60 -46 89 -39 42 10 55 40 55 123 0 43 4 71 9 66 4
-6 27 -54 50 -108 67 -158 112 -324 146 -532 5 -25 -65 40 -395 370 l-400 400
0 278 c0 220 3 277 13 271 6 -4 40 -28 75 -53z m452 -1236 l915 -915 -70 0
-70 0 -420 421 c-231 231 -432 427 -447 435 -53 28 -108 -8 -108 -70 0 -23 18
-48 91 -122 l92 -93 -39 6 c-100 14 -277 57 -377 90 -187 62 -465 212 -592
318 l-30 25 72 0 c78 0 119 11 139 38 20 25 17 65 -6 90 -20 21 -29 22 -188
22 l-168 0 -31 33 c-17 17 -54 64 -83 102 l-52 70 278 3 278 2 201 -200 c179
-177 205 -200 234 -200 35 0 81 37 81 65 0 36 -44 85 -359 400 l-331 329 32
33 c18 18 34 33 37 33 4 0 418 -412 921 -915z"/>
<path d="M1789 4532 c-33 -27 -30 -78 5 -109 l27 -23 896 2 895 3 19 24 c25
30 24 76 -1 101 -20 20 -33 20 -919 20 -859 0 -900 -1 -922 -18z"/>
<path d="M1490 2130 c-28 -28 -26 -75 5 -105 l24 -25 299 0 c288 0 300 1 326
21 33 26 36 79 6 109 -19 19 -33 20 -330 20 -297 0 -311 -1 -330 -20z"/>
</g>
</svg>
